/* XPM */
static char *jtsdk[] = {
/* columns rows colors chars-per-pixel */
"32 32 116 2 ",
"   c #0CE513FB20E5",
".  c #101217492442",
"X  c #1B1A2A664577",
"o  c #1D4C2C7F481B",
"O  c #221336BA599A",
"+  c #24A539095C12",
"@  c #26CA3BFF603F",
"#  c #2DCB42C6663C",
"$  c #2A7942A16D13",
"%  c #2C96468B7489",
"&  c #31DD4AD3769F",
"*  c #33125039825A",
"=  c #3917544D832F",
"-  c #35D6547889DF",
";  c #384955A6882F",
":  c #3D215A3D8C1E",
">  c #3B5E5D6297AE",
",  c #3D1B5E619881",
"<  c #3EAA60619B00",
"1  c #3FAE6470A3AC",
"2  c #41965DEB8CDC",
"3  c #41785EF59252",
"4  c #5DDC6A4D802D",
"5  c #445B64509B8D",
"6  c #4C066A5E9E0C",
"7  c #4240653BA213",
"8  c #44866843A65A",
"9  c #4AA06C8DA6DD",
"0  c #4443691CAA60",
"q  c #5797734DA378",
"w  c #5F437960A697",
"e  c #473E6F8DB6B0",
"r  c #4D5E761EBCAA",
"t  c #4F397843BE7F",
"y  c #56C37ADEB82C",
"u  c #500F77DFBC4E",
"i  c #63497C5FA850",
"p  c #4B807631C127",
"a  c #4E7779CCC6D8",
"s  c #52127D1FC75F",
"d  c #538A7EABC8B4",
"f  c #6F9E81F59EB9",
"g  c #6B8183D8AD98",
"h  c #76A58C14B13E",
"j  c #574780D8C70C",
"k  c #582F8199C78A",
"l  c #566A816DCA02",
"z  c #5BF5857CCBE2",
"x  c #5F3D8888CD10",
"c  c #5F548959D057",
"v  c #63A68C50CE18",
"b  c #68758F7BCFA2",
"n  c #67E0903CCF8A",
"m  c #698A9171CFE4",
"M  c #75539638CE08",
"N  c #77D298D6CEB5",
"B  c #7A8A9A18CEC1",
"V  c #6D47946BD1A5",
"C  c #70E59798D300",
"Z  c #7367996FD3E7",
"A  c #7A709DFED629",
"S  c #7E5BA0E6D7A4",
"D  c #7F51A09FD8B3",
"F  c #827891A9A8A1",
"G  c #858797B7B6BC",
"H  c #86BE9892B6FD",
"J  c #82EF9C90C561",
"K  c #81179E54CFCF",
"L  c #85B8A133CE9A",
"P  c #8C0AA526D00C",
"I  c #9A3AA809C055",
"U  c #9BF7AD39CA9C",
"Y  c #875BA596D4F5",
"T  c #83DCA496DA36",
"R  c #88D6A7A6DC4C",
"E  c #8C7FAAE2DD25",
"W  c #943DAD65D39D",
"Q  c #9240AF18DF04",
"!  c #9470B0BAE01A",
"~  c #A3C7AF96C3E1",
"^  c #A6E6B164C389",
"/  c #ACDEB6CEC7D8",
"(  c #AE59B802C88A",
")  c #AF5DB8C1C8C2",
"_  c #B70EBDA2C913",
"`  c #A4BBB6E0D4E2",
"'  c #A7AEB89ED581",
"]  c #AF08BD6FD60B",
"[  c #9526B117E0F6",
"{  c #9D1AB6FCE2E6",
"}  c #9EFFB862E4BA",
"|  c #A578BDCAE454",
" . c #A911BF42E893",
".. c #BD31C382CE4E",
"X. c #B4E2C1C4D6EF",
"o. c #BB18C55ED722",
"O. c #AB8FC250E522",
"+. c #ADB9C2FDEA4A",
"@. c #B31AC6A6EC46",
"#. c #B64EC914EDB3",
"$. c #BB07CC63EF64",
"%. c #BDF7CE82F0AC",
"&. c #C305C9DED535",
"*. c #CC91CFD5D56C",
"=. c #C643CD45D8EC",
"-. c #D04BD2BFD6FA",
";. c #CC91D16AD99F",
":. c #D47AD4D9D59B",
">. c #D537D6DDD9BB",
",. c #DD3FDCEDDC64",
"<. c #C304D229F25C",
"1. c #C934D6C7F519",
"2. c #CFD7DB96F769",
"3. c #D231DD16F81C",
"4. c #D513DF3AF938",
"5. c None",
/* pixels */
"5.5.5.5.5.5.5.5.5.5.5.5.5.5.5.5.5.5.5.5.5.5.5.5.5.5.5.5.5.5.5.5.",
"5.5.5.5.5.5.O.| | | | | O.| | | O.| | | | O.| O.O.| F 5.5.5.5.5.",
"5.5.5.5.{ R T A A S A S A S Z S S Z S S S S A A A S Y W 5.5.5.5.",
"5.5.5.Q A Z Z Z Z Z C Z Z Z Z Z Z Z Z Z Z Z Z Z Z Z Z A L 4 5.5.",
"5.5.Q Z Z Z C Z Z Z C Z Z Z Z C Z Z Z C Z Z C C C Z Z Z Z J 5.5.",
"5.5.S C C C C C C Z C A Z C C C Z Z Z C C C C C Z C C C Z N f 5.",
"5.E C C C C C C V V V A C V C C Z Z Z C C C C V C V V Z V Z Y 5.",
"5.S C V V C Z Z Z Z Z D Z Z Z Z Z T S A Z A A A A Z Z Z V Z S 5.",
"5.S V m m m C Z V V V A V V V V C } T A } Z V C Z V Z V V V A 5.",
"5.A V V m m V Z m n n Z C V V m C $.Q R %.Z V m Z A Z V m V A 5.",
"5.Z m m m m V A [ } [ D Z C E } [ <.[ E <.D A Q R Z m m m m Z 5.",
"5.Z n n b b m } $.} #.+.Z Q <. .@.2.E T $.A | #.S n n v b m Z 5.",
"5.Z n v n v m @.#.A A E A %.[ v A <.E T <.+.$.A V v n v v n Z 5.",
"5.V v v v v v T $.<.@.Q T <.D c b #.R T 4.4.#.m V v v v v n V 5.",
"5.m v v v v v A Z A } 1.Q $.T c b #.R D <.E %.! V v v v v v V 5.",
"5.m v v v v v O. .C E 1.D  .+.Z Q 2.R R %.m E <.T v v x v v m 5.",
"5.b x x x x x T +.#.#.[ C C  .$.+.@.R T | V V  .[ v v x x x b 5.",
"5.b x v x x v c v V V v V v b V b C V b V v v b V x x x x v 6 5.",
"5.v d x z x x x x z z x v z z z v v z z z z v z x z z z x c 2 5.",
"5.x x x x d z z x d z z c z z z z v z z B ' X.' M z z z z c 2 5.",
"5.z z z z d z z b M M M A B N B N B N P -.,.,.,.=.B z z z c : 5.",
"5.z z z z z z K o.=.;.;.-.;.;.;.;.;.&.*.,.:.~ H G g y z z z 2 5.",
"5.k d d z d d ] X.L >.,.,.,.,.,.,.,.:.:.,.:.g 5 5 3 5 u l z : 5.",
"5.k d l d d d ` &.` ,.,.,.,.,.,.,.,.:.:.,.>.h 6 6 6 5 7 r l : 5.",
"5.d d d d d d v U ( ( ) ) ) ) ) ( ( ^ _ ,.,.*.....h 5 > 5 t ; 5.",
"5.u s s d d d d r 9 5 5 6 5 5 5 5 6 5 q ~ -.>.-.I 9 > 5 , 7 3 5.",
"5.= r s s s s s s p 7 > , , , , , , , > 5 i h w 5 > > , , : # 5.",
"5.5.8 s a a a s a a r 1 , , > , , > , > > > > > > > > > , & . 5.",
"5.5.@ 0 p a a a a a a p 7 > > > > > > > > > > > > > > , * o 5.5.",
"5.5.5.+ 5 e p a a a a a p 1 > > , , > > > > > > > > - $ o 5.5.5.",
"5.5.5.5.5.% - % % % % % % $ + O O O O O O O O O O $ O   5.5.5.5.",
"5.5.5.5.5.5.5.5.5.5.5.5.5.5.5.5.5.5.5.5.5.5.5.5.5.5.5.5.5.5.5.5."
};
